<svg width="157" height="24" viewBox="0 0 157 24" fill="none" xmlns="http://www.w3.org/2000/svg">
<path d="M44.5802 18.5596H48.3344C48.9779 18.5596 49.5815 18.4493 50.1448 18.2279C50.7078 18.0071 51.2128 17.6508 51.6597 17.161C52.1064 16.6706 52.4598 16.0271 52.7189 15.2294C52.9779 14.4316 53.1078 13.4844 53.1078 12.3889C53.1078 10.1786 52.6878 8.49166 51.8474 7.32824C51.0071 6.16561 49.5857 5.58377 47.5837 5.58377H44.5802V18.5596ZM40.37 1.77776H48.6295C51.2214 1.77776 53.3177 2.64764 54.9181 4.38715C56.5178 6.12718 57.3177 8.65032 57.3177 11.9563C57.3177 13.4755 57.1391 14.8642 56.7818 16.1228C56.424 17.3821 55.8787 18.4833 55.1461 19.4248C54.4126 20.3666 53.5009 21.0925 52.4107 21.6019C51.3199 22.1113 50.0593 22.3659 48.6295 22.3659H40.37V1.77776Z" fill="white"/>
<path d="M63.3763 14.7389C63.5729 15.5563 63.8815 16.2913 64.3019 16.9448C64.7214 17.5987 65.2624 18.1126 65.924 18.4877C66.5853 18.8623 67.3721 19.0497 68.284 19.0497C69.1952 19.0497 69.987 18.8578 70.6571 18.4731C71.3273 18.0886 71.8681 17.575 72.2795 16.9304C72.6904 16.2866 72.9944 15.5563 73.191 14.7389C73.3878 13.9221 73.4861 13.0619 73.4861 12.1583C73.4861 11.2165 73.3878 10.3226 73.191 9.47676C72.9944 8.63092 72.6904 7.88127 72.2795 7.22755C71.8681 6.57409 71.3273 6.05498 70.6571 5.67049C69.987 5.28599 69.1952 5.09361 68.284 5.09361C67.3721 5.09361 66.5809 5.28599 65.9107 5.67049C65.2402 6.05498 64.6992 6.57409 64.2883 7.22755C63.8768 7.88127 63.5729 8.63092 63.3763 9.47676C63.1797 10.3226 63.0817 11.2165 63.0817 12.1583C63.0817 13.0619 63.1797 13.9221 63.3763 14.7389ZM59.5149 7.89068C59.9438 6.56416 60.5648 5.40649 61.3788 4.41611C62.1922 3.42625 63.1839 2.657 64.3554 2.1094C65.5259 1.56154 66.8357 1.28735 68.284 1.28735C69.7321 1.28735 71.0416 1.56154 72.2126 2.1094C73.3834 2.657 74.38 3.42625 75.2023 4.41611C76.0244 5.40649 76.646 6.56416 77.0663 7.89068C77.4858 9.21694 77.6962 10.6397 77.6962 12.1583C77.6962 13.6385 77.4858 15.0272 77.0663 16.3248C76.646 17.6223 76.0244 18.7614 75.2023 19.7418C74.38 20.722 73.3834 21.4863 72.2126 22.0342C71.0416 22.582 69.7321 22.8559 68.284 22.8559C66.8357 22.8559 65.5259 22.582 64.3554 22.0342C63.1839 21.4863 62.1922 20.727 61.3788 19.7562C60.5648 18.7857 59.9438 17.6466 59.5149 16.3394C59.0859 15.0322 58.8711 13.6385 58.8711 12.1583C58.8711 10.6397 59.0859 9.21694 59.5149 7.89068Z" fill="white"/>
<path d="M79.6231 1.77772H85.55L90.0286 15.9356H90.0819L94.3189 1.77772H100.245V22.3659H96.3036V7.77517H96.2495L91.5566 22.3659H88.3121L83.6192 7.91945H83.5656V22.3659H79.6231V1.77772Z" fill="white"/>
<path d="M103.891 1.77772H117.827V5.58399H108.101V10.3417H116.594V13.8594H108.101V22.3659H103.891V1.77772Z" fill="white"/>
<path d="M122.948 14.4074H127.909L125.495 6.85258H125.442L122.948 14.4074ZM123.35 1.77782H127.668L134.827 22.3657H130.457L129.008 17.7808H121.848L120.347 22.3657H116.083L123.35 1.77782Z" fill="white"/>
<path d="M136.074 1.77772H142.001L146.479 15.9356H146.532L150.77 1.77772H156.696V22.3659H152.754V7.77517H152.7L148.007 22.3659H144.763L140.07 7.91945H140.016V22.3659H136.074V1.77772Z" fill="white"/>
<path d="M26.3111 17.4367H6.93599V6.91596H26.3111V17.4367Z" fill="white"/>
<path d="M33.5523 6.48014e-07H0V24H33.5523V6.48014e-07ZM29.7316 20.1794H3.82117V3.82091H29.7316V20.1794Z" fill="#692E2E"/>
<path d="M29.7263 3.77465H3.82657V20.2261H29.7263V3.77465ZM25.9054 16.4052H7.64747V7.59555H25.9054V16.4052Z" fill="#7DBDCB"/>
</svg>
