<svg width="118" height="18" viewBox="0 0 118 18" fill="none" xmlns="http://www.w3.org/2000/svg">
<path d="M33.4351 13.9197H36.2508C36.7335 13.9197 37.1861 13.837 37.6086 13.671C38.0308 13.5053 38.4096 13.2381 38.7448 12.8707C39.0798 12.503 39.3449 12.0203 39.5391 11.422C39.7334 10.8237 39.8309 10.1133 39.8309 9.29167C39.8309 7.63398 39.5158 6.36875 38.8856 5.49618C38.2553 4.62421 37.1892 4.18783 35.6878 4.18783H33.4351V13.9197ZM30.2775 1.33332H36.4721C38.416 1.33332 39.9883 1.98573 41.1886 3.29037C42.3884 4.59539 42.9882 6.48774 42.9882 8.96723C42.9882 10.1066 42.8543 11.1482 42.5864 12.0921C42.318 13.0366 41.909 13.8625 41.3596 14.5686C40.8095 15.2749 40.1257 15.8193 39.308 16.2014C38.49 16.5835 37.5445 16.7744 36.4721 16.7744H30.2775V1.33332Z" fill="white"/>
<path d="M47.5322 11.0542C47.6796 11.6672 47.9112 12.2185 48.2264 12.7086C48.541 13.1991 48.9468 13.5845 49.443 13.8658C49.939 14.1467 50.5291 14.2873 51.213 14.2873C51.8964 14.2873 52.4902 14.1434 52.9929 13.8548C53.4955 13.5664 53.9011 13.1812 54.2097 12.6978C54.5178 12.2149 54.7458 11.6672 54.8932 11.0542C55.0409 10.4416 55.1146 9.79642 55.1146 9.11872C55.1146 8.4124 55.0409 7.74195 54.8932 7.10757C54.7458 6.47319 54.5178 5.91095 54.2097 5.42066C53.9011 4.93057 53.4955 4.54124 52.9929 4.25286C52.4902 3.96449 51.8964 3.82021 51.213 3.82021C50.5291 3.82021 49.9356 3.96449 49.433 4.25286C48.9302 4.54124 48.5244 4.93057 48.2162 5.42066C47.9076 5.91095 47.6796 6.47319 47.5322 7.10757C47.3848 7.74195 47.3113 8.4124 47.3113 9.11872C47.3113 9.79642 47.3848 10.4416 47.5322 11.0542ZM44.6362 5.91801C44.9579 4.92312 45.4236 4.05487 46.0341 3.31208C46.6442 2.56968 47.3879 1.99274 48.2666 1.58205C49.1444 1.17115 50.1268 0.965507 51.213 0.965507C52.2991 0.965507 53.2812 1.17115 54.1595 1.58205C55.0375 1.99274 55.785 2.56968 56.4018 3.31208C57.0183 4.05487 57.4845 4.92312 57.7997 5.91801C58.1143 6.91271 58.2722 7.97974 58.2722 9.11872C58.2722 10.2289 58.1143 11.2704 57.7997 12.2436C57.4845 13.2167 57.0183 14.071 56.4018 14.8064C55.785 15.5415 55.0375 16.1147 54.1595 16.5256C53.2812 16.9365 52.2991 17.142 51.213 17.142C50.1268 17.142 49.1444 16.9365 48.2666 16.5256C47.3879 16.1147 46.6442 15.5452 46.0341 14.8171C45.4236 14.0893 44.9579 13.2349 44.6362 12.2545C44.3145 11.2742 44.1533 10.2289 44.1533 9.11872C44.1533 7.97974 44.3145 6.91271 44.6362 5.91801Z" fill="white"/>
<path d="M59.7174 1.33329H64.1625L67.5214 11.9517H67.5614L70.7392 1.33329H75.184V16.7744H72.2277V5.83138H72.1871L68.6675 16.7744H66.2341L62.7144 5.93959H62.6742V16.7744H59.7174V1.33329Z" fill="white"/>
<path d="M77.9179 1.33329H88.3704V4.18799H81.0755V7.75627H87.4455V10.3946H81.0755V16.7744H77.9179V1.33329Z" fill="white"/>
<path d="M92.2108 10.8055H95.9314L94.1214 5.13944H94.0812L92.2108 10.8055ZM92.5123 1.33336H95.7507L101.121 16.7743H97.8424L96.7563 13.3356H91.3861L90.26 16.7743H87.0621L92.5123 1.33336Z" fill="white"/>
<path d="M102.056 1.33329H106.5L109.859 11.9517H109.899L113.077 1.33329H117.522V16.7744H114.565V5.83138H114.525L111.005 16.7744H108.572L105.052 5.93959H105.012V16.7744H102.056V1.33329Z" fill="white"/>
<path d="M19.7333 13.0775H5.20199V5.18697H19.7333V13.0775Z" fill="white"/>
<path d="M25.1642 -1.98094e-07H0V18H25.1642V-1.98094e-07ZM22.2987 15.1345H2.86588V2.86568H22.2987V15.1345Z" fill="#692E2E"/>
<path d="M22.2947 2.83099H2.86993V15.1696H22.2947V2.83099ZM19.429 12.3039H5.73561V5.69666H19.429V12.3039Z" fill="#7DBDCB"/>
</svg>
