<svg width="118" height="19" viewBox="0 0 118 19" fill="none" xmlns="http://www.w3.org/2000/svg">
<path d="M33.4351 13.9663H36.2508C36.7335 13.9663 37.1861 13.8835 37.6086 13.7175C38.0308 13.5518 38.4096 13.2846 38.7448 12.9173C39.0798 12.5495 39.3449 12.0669 39.5391 11.4686C39.7334 10.8702 39.8309 10.1598 39.8309 9.33821C39.8309 7.68051 39.5158 6.41528 38.8856 5.54272C38.2553 4.67074 37.1892 4.23436 35.6878 4.23436H33.4351V13.9663ZM30.2775 1.37985H36.4721C38.416 1.37985 39.9883 2.03227 41.1886 3.3369C42.3884 4.64192 42.9882 6.53428 42.9882 9.01377C42.9882 10.1531 42.8543 11.1947 42.5864 12.1386C42.318 13.0831 41.909 13.909 41.3596 14.6152C40.8095 15.3215 40.1257 15.8659 39.308 16.248C38.49 16.63 37.5445 16.821 36.4721 16.821H30.2775V1.37985Z" fill="#692E2E"/>
<path d="M47.5322 11.1007C47.6796 11.7138 47.9112 12.265 48.2264 12.7551C48.541 13.2456 48.9468 13.631 49.443 13.9123C49.939 14.1932 50.5291 14.3338 51.213 14.3338C51.8964 14.3338 52.4902 14.1899 52.9929 13.9013C53.4955 13.613 53.9011 13.2278 54.2097 12.7443C54.5178 12.2615 54.7458 11.7138 54.8932 11.1007C55.0409 10.4881 55.1146 9.84296 55.1146 9.16526C55.1146 8.45893 55.0409 7.78849 54.8932 7.15411C54.7458 6.51973 54.5178 5.95749 54.2097 5.4672C53.9011 4.97711 53.4955 4.58778 52.9929 4.2994C52.4902 4.01103 51.8964 3.86675 51.213 3.86675C50.5291 3.86675 49.9356 4.01103 49.433 4.2994C48.9302 4.58778 48.5244 4.97711 48.2162 5.4672C47.9076 5.95749 47.6796 6.51973 47.5322 7.15411C47.3848 7.78849 47.3113 8.45893 47.3113 9.16526C47.3113 9.84296 47.3848 10.4881 47.5322 11.1007ZM44.6362 5.96455C44.9579 4.96966 45.4236 4.10141 46.0341 3.35862C46.6442 2.61622 47.3879 2.03928 48.2666 1.62858C49.1444 1.21769 50.1268 1.01205 51.213 1.01205C52.2991 1.01205 53.2812 1.21769 54.1595 1.62858C55.0375 2.03928 55.785 2.61622 56.4018 3.35862C57.0183 4.10141 57.4845 4.96966 57.7997 5.96455C58.1143 6.95925 58.2722 8.02628 58.2722 9.16526C58.2722 10.2754 58.1143 11.317 57.7997 12.2901C57.4845 13.2632 57.0183 14.1176 56.4018 14.8529C55.785 15.588 55.0375 16.1613 54.1595 16.5722C53.2812 16.9831 52.2991 17.1885 51.213 17.1885C50.1268 17.1885 49.1444 16.9831 48.2666 16.5722C47.3879 16.1613 46.6442 15.5918 46.0341 14.8637C45.4236 14.1358 44.9579 13.2815 44.6362 12.3011C44.3145 11.3207 44.1533 10.2754 44.1533 9.16526C44.1533 8.02628 44.3145 6.95925 44.6362 5.96455Z" fill="#692E2E"/>
<path d="M59.7174 1.37983H64.1625L67.5214 11.9982H67.5614L70.7392 1.37983H75.184V16.8209H72.2277V5.87792H72.1871L68.6675 16.8209H66.234L62.7144 5.98613H62.6742V16.8209H59.7174V1.37983Z" fill="#692E2E"/>
<path d="M77.9179 1.37983H88.3704V4.23453H81.0755V7.80281H87.4455V10.4411H81.0755V16.8209H77.9179V1.37983Z" fill="#692E2E"/>
<path d="M92.2108 10.8521H95.9314L94.1214 5.18598H94.0812L92.2108 10.8521ZM92.5123 1.3799H95.7507L101.121 16.8208H97.8424L96.7563 13.3821H91.3861L90.26 16.8208H87.0621L92.5123 1.3799Z" fill="#692E2E"/>
<path d="M102.056 1.37983H106.5L109.859 11.9982H109.899L113.077 1.37983H117.522V16.8209H114.565V5.87792H114.525L111.005 16.8209H108.572L105.052 5.98613H105.012V16.8209H102.056V1.37983Z" fill="#692E2E"/>
<path d="M19.7333 13.124H5.20199V5.23351H19.7333V13.124Z" fill="white"/>
<path d="M25.1642 0.0465391H0V18.0465H25.1642V0.0465391ZM22.2987 15.1811H2.86588V2.91222H22.2987V15.1811Z" fill="#692E2E"/>
<path d="M22.2947 2.87752H2.86993V15.2161H22.2947V2.87752ZM19.429 12.3505H5.73561V5.7432H19.429V12.3505Z" fill="#7DBDCB"/>
</svg>
