<?xml version="1.0" encoding="UTF-8"?>
<svg id="Layer_2" data-name="Layer 2" xmlns="http://www.w3.org/2000/svg" viewBox="0 0 206.42 52.61">
  <defs>
    <style>
      .cls-1 {
        fill: #546eb4;
      }

      .cls-1, .cls-2, .cls-3 {
        stroke-width: 0px;
      }

      .cls-2 {
        fill: #8f8f8f;
      }

      .cls-3 {
        fill: #a1a1a1;
      }
    </style>
  </defs>
  <g id="_레이어_1" data-name="레이어 1">
    <g>
      <g>
        <path class="cls-1" d="m31.4,18.4v12.83c0,2.48-1.31,4.66-3.49,5.84-1,.54-2.08.8-3.14.8-1.27,0-2.53-.37-3.65-1.12l-11.16-7.4c-1.63-1.08-2.6-2.89-2.6-4.84v-.78h.92c.8,0,1.47.54,1.66,1.27.01.09.03.19.05.28.07.27.17.53.3.77.25.47.61.87,1.07,1.17l11.17,7.4c1.26.84,2.81.91,4.15.21,1.37-.72,2.18-2.18,2.18-3.72v-12.72c0-1.37-.68-2.64-1.83-3.4L9.9,3.64v14.5l-2.55-1.69V1.27c0-.47.26-.9.67-1.12.41-.22.91-.2,1.31.06l19.11,12.66c1.85,1.23,2.97,3.31,2.97,5.53Z"/>
        <path class="cls-2" d="m24.05,30.09v1.05h-.89c-.71,0-1.32-.43-1.59-1.05-.04-.09-.07-.19-.09-.3,0-.05-.02-.11-.03-.16-.12-.57-.45-1.07-.95-1.4L2.55,16.33v8.36c0,.95-.77,1.72-1.72,1.72H0v-12.4c0-.4.16-.79.48-1.04.45-.35,1.04-.37,1.5-.07l5.37,3.56,2.55,1.69,12.02,7.96c1.34.89,2.14,2.38,2.14,3.98Z"/>
        <path class="cls-2" d="m4.71,30.45l-2.74-1.81c-.39-.26-.89-.28-1.3-.06-.41.22-.67.65-.67,1.12v20.66c0,.47.26.9.66,1.12.19.1.4.15.61.15.24,0,.48-.07.69-.2l6.16-3.98h0c1.35-.87,2.16-2.35,2.18-3.95h0v-2.13h0c-1.09-.72-2.55.06-2.55,1.37v.73h0c0,.74-.39,1.43-1.02,1.85h0s-4.19,2.71-4.19,2.71v-15.95l.05.03h0l.81.54,2.01,1.33h0s6.91,4.58,6.91,4.58c.79.53,1.86.31,2.39-.49l.45-.69-10.46-6.93Z"/>
      </g>
      <g>
        <g>
          <path class="cls-3" d="m61.63,44.74c.48.24.85.59,1.1,1.04.26.46.38.99.38,1.6s-.13,1.15-.38,1.6c-.26.45-.62.79-1.1,1.03-.48.24-1.04.36-1.7.36h-1.87v-6h1.87c.66,0,1.22.12,1.7.37Zm.07,4.37c.41-.41.61-.98.61-1.73s-.21-1.33-.61-1.75c-.41-.42-1-.63-1.77-.63h-1.08v4.72h1.08c.78,0,1.37-.21,1.77-.62Z"/>
          <path class="cls-3" d="m65,50.15c-.36-.2-.64-.48-.84-.85s-.3-.8-.3-1.29.1-.91.31-1.28c.21-.37.5-.65.86-.85.36-.2.77-.3,1.21-.3s.85.1,1.21.3c.36.2.65.48.86.85.21.37.31.79.31,1.28s-.11.92-.32,1.29-.51.66-.87.85c-.37.2-.77.3-1.22.3s-.84-.1-1.2-.3Zm1.99-.58c.25-.13.45-.33.6-.59.15-.26.23-.58.23-.96s-.07-.7-.22-.96c-.15-.27-.34-.46-.58-.59-.24-.13-.5-.19-.78-.19s-.55.06-.79.19c-.24.13-.43.32-.57.59-.14.26-.21.58-.21.96s.07.71.21.97c.14.27.33.46.56.59.24.13.49.19.77.19s.55-.06.79-.2Z"/>
          <path class="cls-3" d="m69.65,46.73c.19-.36.47-.65.81-.85.35-.2.75-.3,1.19-.3.58,0,1.06.14,1.43.42.38.28.62.67.75,1.17h-.84c-.08-.29-.24-.51-.47-.68-.23-.17-.52-.25-.86-.25-.45,0-.81.15-1.08.46-.28.31-.41.74-.41,1.3s.14,1.01.41,1.32c.27.31.64.46,1.08.46.34,0,.63-.08.86-.24.23-.16.39-.39.47-.69h.84c-.13.48-.38.87-.76,1.16-.38.29-.85.44-1.42.44-.45,0-.85-.1-1.19-.3-.35-.2-.62-.48-.81-.85-.2-.37-.29-.8-.29-1.29s.1-.92.29-1.28Z"/>
          <path class="cls-3" d="m79.06,45.66v4.72h-.78v-.7c-.15.24-.36.43-.62.56-.27.13-.56.2-.88.2-.37,0-.7-.08-.99-.23-.29-.15-.52-.38-.69-.69-.17-.31-.25-.67-.25-1.11v-2.76h.78v2.66c0,.46.12.82.35,1.07.23.25.56.37.96.37s.75-.13.99-.39c.24-.26.36-.63.36-1.12v-2.59h.78Z"/>
          <path class="cls-3" d="m87.04,45.8c.29.15.51.38.68.69.17.31.25.67.25,1.11v2.78h-.77v-2.67c0-.47-.12-.83-.35-1.08-.23-.25-.55-.37-.94-.37s-.73.13-.97.4c-.24.26-.36.64-.36,1.13v2.6h-.78v-2.67c0-.47-.11-.83-.35-1.08-.23-.25-.55-.37-.94-.37s-.73.13-.97.4c-.24.26-.36.64-.36,1.13v2.6h-.78v-4.72h.78v.68c.16-.25.36-.44.62-.57.26-.13.55-.2.86-.2.4,0,.75.09,1.05.27.3.18.53.44.68.78.13-.33.35-.59.66-.77.3-.18.64-.27,1.01-.27s.7.08.98.23Z"/>
          <path class="cls-3" d="m93.53,48.31h-3.77c.03.46.19.83.48,1.09.29.26.64.39,1.05.39.34,0,.62-.08.85-.24.23-.16.39-.37.48-.63h.84c-.13.46-.38.82-.76,1.11-.38.28-.85.42-1.41.42-.45,0-.85-.1-1.2-.3-.35-.2-.63-.48-.83-.85-.2-.37-.3-.8-.3-1.29s.1-.92.29-1.28c.19-.37.47-.65.82-.85.35-.2.76-.3,1.22-.3s.84.1,1.19.29c.34.19.61.46.8.8.19.34.28.73.28,1.16,0,.15,0,.31-.03.48Zm-.98-1.41c-.13-.22-.31-.38-.54-.49-.23-.11-.48-.17-.75-.17-.4,0-.73.13-1.01.38-.28.25-.44.6-.48,1.05h2.98c0-.3-.07-.56-.2-.77Z"/>
          <path class="cls-3" d="m98.28,46.09c.36.35.53.85.53,1.5v2.78h-.77v-2.67c0-.47-.12-.83-.35-1.08-.24-.25-.56-.37-.96-.37s-.74.13-.99.39c-.24.26-.37.63-.37,1.12v2.61h-.78v-4.72h.78v.67c.16-.24.37-.43.63-.56.27-.13.56-.2.88-.2.57,0,1.04.17,1.39.52Z"/>
          <path class="cls-3" d="m101.05,46.3v2.78c0,.23.05.39.15.48.1.1.27.15.51.15h.58v.66h-.71c-.44,0-.76-.1-.98-.3-.22-.2-.33-.53-.33-.99v-2.78h-.61v-.65h.61v-1.19h.78v1.19h1.23v.65h-1.23Z"/>
          <path class="cls-3" d="m106.72,50.04c-.46-.26-.82-.62-1.09-1.09-.27-.47-.4-1-.4-1.58s.13-1.11.4-1.58c.27-.47.63-.83,1.09-1.09.46-.26.97-.39,1.52-.39s1.07.13,1.53.39c.46.26.82.62,1.08,1.09.26.46.4.99.4,1.58s-.13,1.12-.4,1.58c-.26.46-.62.83-1.08,1.09-.46.26-.97.39-1.53.39s-1.06-.13-1.52-.39Zm2.65-.58c.34-.2.6-.48.79-.83.19-.36.29-.78.29-1.26s-.09-.9-.29-1.26c-.19-.36-.45-.63-.79-.83-.33-.19-.71-.29-1.14-.29s-.8.1-1.14.29c-.33.2-.59.47-.79.83-.19.36-.29.78-.29,1.26s.09.9.29,1.26c.19.36.46.64.79.83.34.19.71.29,1.13.29s.8-.1,1.13-.29Z"/>
          <path class="cls-3" d="m113.78,45.85c.31-.18.66-.27,1.06-.27.42,0,.8.1,1.14.3.34.2.61.48.8.85.2.36.29.79.29,1.27s-.1.9-.29,1.27c-.19.37-.46.66-.8.87-.34.21-.72.31-1.14.31s-.77-.09-1.07-.27c-.31-.18-.54-.4-.69-.68v.87h-.78v-6.37h.78v2.53c.16-.28.4-.51.71-.69Zm2.28,1.22c-.14-.26-.34-.46-.58-.6s-.51-.21-.81-.21-.55.07-.8.21-.44.34-.58.61c-.15.27-.22.58-.22.93s.07.67.22.94c.15.27.34.47.58.61s.51.21.8.21.56-.07.81-.21.44-.34.58-.61c.14-.27.22-.58.22-.94s-.07-.67-.22-.93Z"/>
          <path class="cls-3" d="m118.92,51.4c0,.42-.11.73-.32.92-.21.2-.52.29-.93.29h-.46v-.66h.33c.22,0,.37-.04.46-.13.09-.09.13-.23.13-.44v-5.72h.78v5.74Zm-.76-6.66c-.1-.1-.15-.23-.15-.38s.05-.28.15-.38c.1-.1.23-.16.37-.16s.27.05.37.16c.1.1.15.23.15.38s-.05.27-.15.38c-.1.1-.23.15-.37.15s-.27-.05-.37-.15Z"/>
          <path class="cls-3" d="m124.52,48.31h-3.77c.03.46.19.83.48,1.09.29.26.64.39,1.05.39.34,0,.62-.08.85-.24.23-.16.39-.37.48-.63h.84c-.13.46-.38.82-.76,1.11-.38.28-.85.42-1.41.42-.45,0-.85-.1-1.2-.3-.35-.2-.63-.48-.83-.85-.2-.37-.3-.8-.3-1.29s.1-.92.29-1.28c.19-.37.47-.65.82-.85.35-.2.76-.3,1.22-.3s.84.1,1.19.29c.34.19.61.46.8.8.19.34.28.73.28,1.16,0,.15,0,.31-.03.48Zm-.98-1.41c-.13-.22-.31-.38-.54-.49-.23-.11-.48-.17-.75-.17-.4,0-.73.13-1.01.38-.28.25-.44.6-.48,1.05h2.98c0-.3-.07-.56-.2-.77Z"/>
          <path class="cls-3" d="m125.58,46.73c.19-.36.47-.65.81-.85.35-.2.75-.3,1.19-.3.58,0,1.06.14,1.43.42.38.28.62.67.75,1.17h-.84c-.08-.29-.24-.51-.47-.68-.23-.17-.52-.25-.86-.25-.45,0-.81.15-1.08.46-.28.31-.41.74-.41,1.3s.14,1.01.41,1.32c.27.31.64.46,1.08.46.34,0,.63-.08.86-.24.23-.16.39-.39.47-.69h.84c-.13.48-.38.87-.76,1.16-.38.29-.85.44-1.42.44-.45,0-.85-.1-1.19-.3-.35-.2-.62-.48-.81-.85-.2-.37-.29-.8-.29-1.29s.1-.92.29-1.28Z"/>
          <path class="cls-3" d="m131.76,46.3v2.78c0,.23.05.39.15.48.1.1.27.15.51.15h.58v.66h-.71c-.44,0-.76-.1-.98-.3-.22-.2-.33-.53-.33-.99v-2.78h-.61v-.65h.61v-1.19h.78v1.19h1.23v.65h-1.23Z"/>
          <path class="cls-3" d="m142.32,44.42v5.95h-.78v-4.44l-1.98,4.44h-.55l-1.99-4.45v4.45h-.78v-5.95h.84l2.2,4.92,2.2-4.92h.83Z"/>
          <path class="cls-3" d="m144.5,50.15c-.36-.2-.64-.48-.84-.85-.2-.37-.3-.8-.3-1.29s.1-.91.31-1.28.5-.65.86-.85c.36-.2.77-.3,1.21-.3s.85.1,1.21.3c.36.2.65.48.86.85.21.37.31.79.31,1.28s-.11.92-.32,1.29c-.22.37-.51.66-.87.85-.37.2-.77.3-1.22.3s-.84-.1-1.2-.3Zm1.99-.58c.25-.13.45-.33.6-.59.15-.26.23-.58.23-.96s-.07-.7-.22-.96c-.15-.27-.34-.46-.58-.59-.24-.13-.5-.19-.78-.19s-.55.06-.79.19c-.24.13-.43.32-.57.59-.14.26-.21.58-.21.96s.07.71.21.97c.14.27.33.46.56.59.24.13.49.19.77.19s.55-.06.79-.2Z"/>
          <path class="cls-3" d="m149.15,46.73c.19-.36.46-.65.8-.85.34-.2.72-.3,1.15-.3.37,0,.71.08,1.02.25.32.17.56.39.72.67v-2.5h.79v6.37h-.79v-.89c-.16.28-.38.51-.69.69-.3.18-.66.27-1.07.27s-.8-.1-1.14-.31c-.34-.21-.61-.5-.8-.87-.2-.37-.29-.8-.29-1.27s.1-.91.29-1.27Zm3.49.35c-.14-.26-.34-.46-.58-.6s-.51-.21-.8-.21-.56.07-.8.21c-.24.14-.43.34-.58.6-.14.27-.21.58-.21.93s.07.67.21.94c.15.27.34.47.58.61.24.14.51.21.8.21s.56-.07.8-.21.44-.34.58-.61c.14-.27.22-.58.22-.94s-.07-.67-.22-.93Z"/>
          <path class="cls-3" d="m159.25,48.31h-3.77c.03.46.19.83.48,1.09.29.26.64.39,1.05.39.34,0,.62-.08.85-.24.23-.16.39-.37.48-.63h.84c-.13.46-.38.82-.76,1.11-.38.28-.85.42-1.41.42-.45,0-.85-.1-1.2-.3-.35-.2-.63-.48-.83-.85-.2-.37-.3-.8-.3-1.29s.1-.92.29-1.28c.19-.37.47-.65.82-.85.35-.2.76-.3,1.22-.3s.84.1,1.19.29c.34.19.61.46.8.8.19.34.28.73.28,1.16,0,.15-.01.31-.03.48Zm-.98-1.41c-.13-.22-.31-.38-.54-.49-.23-.11-.48-.17-.75-.17-.4,0-.73.13-1.01.38-.28.25-.44.6-.48,1.05h2.98c0-.3-.07-.56-.2-.77Z"/>
          <path class="cls-3" d="m161.09,44v6.37h-.78v-6.37h.78Z"/>
          <path class="cls-3" d="m168.11,44.37v.64h-2.61v2.02h2.12v.64h-2.12v2.7h-.78v-6h3.39Z"/>
          <path class="cls-3" d="m169.06,46.73c.19-.36.46-.65.8-.85.34-.2.72-.3,1.14-.3s.77.09,1.07.27c.3.18.53.4.68.67v-.86h.79v4.72h-.79v-.88c-.16.28-.39.5-.69.69-.31.18-.67.27-1.07.27s-.8-.1-1.13-.31c-.34-.21-.61-.5-.8-.87-.2-.37-.29-.8-.29-1.27s.1-.91.29-1.27Zm3.49.35c-.14-.26-.34-.46-.58-.6s-.51-.21-.8-.21-.56.07-.8.21c-.24.14-.43.34-.58.6-.14.27-.21.58-.21.93s.07.67.21.94c.15.27.34.47.58.61.24.14.51.21.8.21s.56-.07.8-.21.44-.34.58-.61c.14-.27.22-.58.22-.94s-.07-.67-.22-.93Z"/>
          <path class="cls-3" d="m181.53,45.8c.29.15.51.38.68.69.17.31.25.67.25,1.11v2.78h-.77v-2.67c0-.47-.12-.83-.35-1.08-.23-.25-.55-.37-.94-.37s-.73.13-.97.4c-.24.26-.36.64-.36,1.13v2.6h-.78v-2.67c0-.47-.11-.83-.35-1.08-.23-.25-.55-.37-.94-.37s-.73.13-.97.4c-.24.26-.36.64-.36,1.13v2.6h-.78v-4.72h.78v.68c.16-.25.36-.44.62-.57.26-.13.55-.2.86-.2.4,0,.75.09,1.05.27.3.18.53.44.68.78.13-.33.35-.59.66-.77.3-.18.64-.27,1.01-.27s.7.08.98.23Z"/>
          <path class="cls-3" d="m183.77,44.74c-.1-.1-.16-.23-.16-.38s.05-.28.16-.38c.1-.1.23-.16.38-.16s.27.05.37.16c.1.1.15.23.15.38s-.05.27-.15.38c-.1.1-.22.15-.37.15s-.27-.05-.38-.15Zm.76.92v4.72h-.78v-4.72h.78Z"/>
          <path class="cls-3" d="m186.64,44v6.37h-.78v-6.37h.78Z"/>
          <path class="cls-3" d="m192.03,45.66l-2.84,6.94h-.81l.93-2.27-1.9-4.66h.87l1.48,3.82,1.46-3.82h.81Z"/>
        </g>
        <path class="cls-1" d="m54.29,13.51c7.11,0,10.98,3.97,10.98,12.2s-3.83,12.16-10.98,12.16h-8.59c-1.37,0-2.02-.65-2.02-1.98V15.5c0-1.33.65-1.98,2.02-1.98h8.59Zm-6.35,19.67c0,.33.14.43.47.43h5.88c4.73,0,6.72-2.35,6.72-7.94s-1.99-7.91-6.72-7.91h-5.88c-.33,0-.47.11-.47.43v14.98Z"/>
        <path class="cls-1" d="m82.33,13.51c7.07,0,11.01,4.05,11.01,12.24s-3.9,12.13-11.01,12.13h-3.32c-7.11,0-11.01-3.97-11.01-12.13s3.94-12.24,11.01-12.24h3.32Zm-3.32,4.26c-4.69,0-6.75,2.38-6.75,7.98s2.02,7.87,6.75,7.87h3.32c4.69,0,6.71-2.31,6.71-7.91s-2.02-7.95-6.71-7.95h-3.32Z"/>
        <path class="cls-1" d="m148.63,13.51v4.26h-9.82c-3.86,0-5.02,1.84-5.02,4.12v2.31h14.69v4.04h-14.69v9.64h-4.26v-15.96c0-4.87,2.52-8.41,8.99-8.41h10.11Z"/>
        <path class="cls-1" d="m152.95,37.88h-4.69l8.56-21.66c.9-2.27,2.56-3.14,5.13-3.14s4.19.87,5.05,3.14l8.23,21.66h-4.73l-7.4-19.6c-.22-.58-.62-.83-1.19-.83s-.98.25-1.23.83l-7.73,19.6Z"/>
        <path class="cls-1" d="m111.3,36.83c-2.93,0-5.38-1.81-6.23-4.62l-4.35-14.41s-.06-.01-.08,0l.03,20.08h-4.26v-20.08c0-2.18,1.51-3.92,3.66-4.24,2.16-.32,4.1.92,4.73,3.01l4.35,14.41c.45,1.48,1.75,1.59,2.14,1.59s1.7-.12,2.14-1.59l4.35-14.41c.63-2.09,2.58-3.32,4.73-3.01,2.16.32,3.66,2.06,3.66,4.24v20.08h-4.26v-20.08s-.05-.03-.08-.02l-4.32,14.42c-.85,2.81-3.29,4.62-6.22,4.62h0Z"/>
        <path class="cls-1" d="m191.53,36.83c-2.93,0-5.38-1.81-6.23-4.62l-4.35-14.41s-.06-.01-.08,0l.03,20.08h-4.26v-20.08c0-2.18,1.51-3.92,3.66-4.24,2.16-.32,4.1.92,4.73,3.01l4.35,14.41c.45,1.48,1.75,1.59,2.14,1.59s1.7-.12,2.14-1.59l4.35-14.41c.63-2.09,2.58-3.32,4.73-3.01,2.16.32,3.66,2.06,3.66,4.24v20.08h-4.26v-20.08s-.05-.03-.08-.02l-4.32,14.42c-.85,2.81-3.29,4.62-6.22,4.62h0Z"/>
      </g>
    </g>
  </g>
</svg>